<?xml version="1.0" encoding="UTF-8"?>
<svg width="1200pt" height="1200pt" version="1.1" viewBox="0 0 1200 1200" xmlns="http://www.w3.org/2000/svg">
    <path d="m468.55 1020.7c-138.02-43.066-246.15-151.18-289.22-289.22-1.5391-4.9297-6.7148-7.7031-11.758-6.1484-4.9141 1.5547-7.6875 6.8047-6.1484 11.758 44.922 143.89 157.63 256.61 301.52 301.52 0.9375 0.30078 1.8945 0.43359 2.8125 0.43359 3.9766 0 7.6875-2.5703 8.9453-6.582 1.5391-4.9492-1.2188-10.199-6.1484-11.758m16.797-53.699c-120.41-37.574-214.74-131.89-252.32-252.3-1.5391-4.9297-6.75-7.7031-11.758-6.1484-4.9297 1.5547-7.6875 6.8047-6.1484 11.758 39.43 126.26 138.34 225.17 264.62 264.6 0.91797 0.28125 1.875 0.41406 2.793 0.41406 3.9961 0 7.6875-2.5508 8.9648-6.5625 1.5352-4.9492-1.2188-10.199-6.1523-11.758m-33.598 107.4c-155.61-48.582-277.54-170.5-326.12-326.12-1.5547-4.9297-6.6914-7.7227-11.754-6.1484-4.9492 1.5547-7.6875 6.8047-6.1523 11.754 50.422 161.48 176.95 288 338.44 338.42 0.92188 0.29687 1.875 0.42969 2.7969 0.42969 3.9922 0 7.6875-2.5703 8.9609-6.582 1.5391-4.9297-1.2188-10.199-6.168-11.754m285.3-912.94c-4.9883-1.5586-10.203 1.2344-11.758 6.1484-1.5391 4.9492 1.2383 10.199 6.1484 11.738 138.04 43.086 246.15 151.2 289.22 289.22 1.2773 4.0117 4.9688 6.582 8.9648 6.582 0.91797 0 1.8555-0.13281 2.793-0.43359 4.9297-1.5352 7.6875-6.7852 6.1484-11.738-44.906-143.89-157.63-256.61-301.52-301.52m-16.766 53.719c-5.0234-1.5938-10.199 1.2188-11.754 6.1484-1.5391 4.9492 1.2188 10.199 6.1484 11.738 120.39 37.594 214.69 131.89 252.28 252.28 1.2578 4.0117 4.9688 6.582 8.9648 6.582 0.89844 0 1.8555-0.13281 2.793-0.43359 4.9492-1.5352 7.6875-6.7852 6.1484-11.738-39.41-126.26-138.34-225.17-264.58-264.58m372 231.02c-50.438-161.49-176.94-288.02-338.44-338.44-5.0234-1.5938-10.199 1.2188-11.754 6.1523-1.5391 4.9492 1.1992 10.199 6.1484 11.738 155.64 48.598 277.56 170.51 326.14 326.14 1.2578 4.0117 4.9531 6.582 8.9453 6.582 0.91797 0 1.875-0.13281 2.8125-0.43359 4.9297-1.5352 7.6875-6.7852 6.1484-11.738m-492.28 172.58c-10.348 0-18.75-8.4023-18.75-18.75 0-10.332 8.4023-18.75 18.75-18.75 10.332 0 18.75 8.418 18.75 18.75 0 10.348-8.418 18.75-18.75 18.75m0-56.25c-20.719 0-37.5 16.797-37.5 37.5 0 20.719 16.781 37.5 37.5 37.5 20.703 0 37.5-16.781 37.5-37.5 0-20.703-16.797-37.5-37.5-37.5m0 206.25c-93.055 0-168.75-75.695-168.75-168.75 0-93.039 75.695-168.75 168.75-168.75 93.039 0 168.75 75.711 168.75 168.75 0 93.055-75.711 168.75-168.75 168.75m0-375c-113.91 0-206.25 92.344-206.25 206.25 0 113.92 92.344 206.25 206.25 206.25s206.25-92.328 206.25-206.25c0-113.91-92.344-206.25-206.25-206.25m0 768.75c-310.16 0-562.5-252.32-562.5-562.5 0-310.16 252.34-562.5 562.5-562.5 310.16 0 562.5 252.34 562.5 562.5 0 310.18-252.34 562.5-562.5 562.5m0-1162.5c-331.37 0-600 268.63-600 600 0 331.39 268.63 600 600 600 331.37 0 600-268.61 600-600 0-331.37-268.63-600-600-600" fill-rule="evenodd"/>
</svg>
